name rise49.8558peak67.6521fall70.3087.mot
datacolumns 19
datarows 23
range 5.57164600000000 5.60830800000000
endheader
time	ground_force1_vx	ground_force1_vy	ground_force1_vz	ground_force1_px	ground_force1_py	ground_force1_pz	ground_force2_vx	ground_force2_vy	ground_force2_vz	ground_force2_px	ground_force2_py	ground_force2_pz	ground_torque1_x	ground_torque1_y	ground_torque1_z	ground_torque2_x	ground_torque2_y	ground_torque2_z	
5.57164600000000	-9.19809100000000	41.52894100000000	-7.40311000000000	0.34556500000000	0.00000000000000	0.09667300000000	-57.60514400000000	796.53775399999995	-65.18631300000000	0.13151700000000	0.00000000000000	-0.10252900000000	0.00000000000000	-4.87975100000000	0.00000000000000	0.00000000000000	-27.19828800000000	0.00000000000000	
5.57331300000000	-10.06649500000000	48.84812800000000	-8.31210800000000	0.35162500000000	0.00000000000000	0.09775100000000	-58.16110500000000	794.04569700000002	-64.81524000000000	0.13070600000000	0.00000000000000	-0.10243300000000	0.00000000000000	-5.56497000000000	0.00000000000000	0.00000000000000	-27.09506900000000	0.00000000000000	
5.57498400000000	-10.75575000000000	56.30466800000000	-9.13236900000000	0.35706200000000	0.00000000000000	0.09871400000000	-58.71863600000000	791.43123100000003	-64.41829799999999	0.12990200000000	0.00000000000000	-0.10233300000000	0.00000000000000	-6.20913500000000	0.00000000000000	0.00000000000000	-26.98907700000000	0.00000000000000	
5.57664400000000	-11.24101100000000	63.80599300000000	-9.84378500000000	0.36197500000000	0.00000000000000	0.09958300000000	-59.27725600000000	788.69271800000001	-63.99547300000000	0.12910500000000	0.00000000000000	-0.10222900000000	0.00000000000000	-6.79771900000000	0.00000000000000	0.00000000000000	-26.88031800000000	0.00000000000000	
5.57831300000000	-11.50782500000000	71.28093200000001	-10.43289600000000	0.36644300000000	0.00000000000000	0.10037200000000	-59.83641900000000	785.82848799999999	-63.54679000000000	0.12831500000000	0.00000000000000	-0.10212200000000	0.00000000000000	-7.32032300000000	0.00000000000000	0.00000000000000	-26.76879100000000	0.00000000000000	
5.57998300000000	-11.55194000000000	78.68206600000001	-10.89297600000000	0.37052700000000	0.00000000000000	0.10109500000000	-60.39552400000000	782.83684500000004	-63.07230500000000	0.12753200000000	0.00000000000000	-0.10201000000000	0.00000000000000	-7.77086600000000	0.00000000000000	0.00000000000000	-26.65448600000000	0.00000000000000	
5.58164900000000	-11.37831700000000	85.98571800000001	-11.22356400000000	0.37428100000000	0.00000000000000	0.10176000000000	-60.95390500000000	779.71606299999996	-62.57211400000000	0.12675500000000	0.00000000000000	-0.10189500000000	0.00000000000000	-8.14739400000000	0.00000000000000	0.00000000000000	-26.53738400000000	0.00000000000000	
5.58331100000000	-10.99956500000000	93.19000300000000	-11.42955100000000	0.37774400000000	0.00000000000000	0.10237700000000	-61.51083400000000	776.46439299999997	-62.04634700000000	0.12598600000000	0.00000000000000	-0.10177700000000	0.00000000000000	-8.45157700000000	0.00000000000000	0.00000000000000	-26.41745600000000	0.00000000000000	
5.58498200000000	-10.43400200000000	100.31140800000000	-11.51999500000000	0.38095300000000	0.00000000000000	0.10295100000000	-62.06552000000000	773.08006599999999	-61.49517200000000	0.12522400000000	0.00000000000000	-0.10165400000000	0.00000000000000	-8.68799300000000	0.00000000000000	0.00000000000000	-26.29466600000000	0.00000000000000	
5.58664200000000	-9.70360100000000	107.38045400000000	-11.50680100000000	0.38393700000000	0.00000000000000	0.10348800000000	-62.61710900000000	769.56129599999997	-60.91879400000000	0.12446800000000	0.00000000000000	-0.10152800000000	0.00000000000000	-8.86330300000000	0.00000000000000	0.00000000000000	-26.16896500000000	0.00000000000000	
5.58831500000000	-8.83198000000000	114.43696199999999	-11.40339200000000	0.38671900000000	0.00000000000000	0.10399400000000	-63.16468000000000	765.90628500000003	-60.31745600000000	0.12372000000000	0.00000000000000	-0.10139800000000	0.00000000000000	-8.98538500000000	0.00000000000000	0.00000000000000	-26.04029700000000	0.00000000000000	
5.58998400000000	-7.84260900000000	121.52536600000001	-11.22349700000000	0.38932100000000	0.00000000000000	0.10447000000000	-63.70725300000000	762.11322700000005	-59.69144100000000	0.12297900000000	0.00000000000000	-0.10126500000000	0.00000000000000	-9.06253200000000	0.00000000000000	0.00000000000000	-25.90859600000000	0.00000000000000	
5.59164400000000	-6.75733800000000	128.69045299999999	-10.98011900000000	0.39176100000000	0.00000000000000	0.10492100000000	-64.24378200000000	758.18031699999995	-59.04107100000000	0.12224500000000	0.00000000000000	-0.10112800000000	0.00000000000000	-9.10274500000000	0.00000000000000	0.00000000000000	-25.77378500000000	0.00000000000000	
5.59331500000000	-5.59529500000000	135.97377700000001	-10.68473700000000	0.39405400000000	0.00000000000000	0.10535000000000	-64.77316100000000	754.10575400000005	-58.36670400000000	0.12151900000000	0.00000000000000	-0.10098800000000	0.00000000000000	-9.11317500000000	0.00000000000000	0.00000000000000	-25.63577900000000	0.00000000000000	
5.59498000000000	-4.37219100000000	143.41091000000000	-10.34676600000000	0.39621400000000	0.00000000000000	0.10575900000000	-65.29422300000000	749.88774999999998	-57.66874200000000	0.12080000000000	0.00000000000000	-0.10084400000000	0.00000000000000	-9.09972700000000	0.00000000000000	0.00000000000000	-25.49448400000000	0.00000000000000	
5.59664200000000	-3.10000200000000	151.02960400000001	-9.97327200000000	0.39825200000000	0.00000000000000	0.10614900000000	-65.80574200000000	745.52453800000001	-56.94762400000000	0.12008900000000	0.00000000000000	-0.10069700000000	0.00000000000000	-9.06682900000000	0.00000000000000	0.00000000000000	-25.34979500000000	0.00000000000000	
5.59830900000000	-1.78698600000000	158.84881500000000	-9.56890500000000	0.40017900000000	0.00000000000000	0.10652300000000	-66.30643700000000	741.01437999999996	-56.20383100000000	0.11938500000000	0.00000000000000	-0.10054600000000	0.00000000000000	-9.01735600000000	0.00000000000000	0.00000000000000	-25.20160000000000	0.00000000000000	
5.59997800000000	-0.43797800000000	166.87853400000000	-9.13604400000000	0.40200300000000	0.00000000000000	0.10688200000000	-66.79497200000000	736.35557300000005	-55.43788100000000	0.11869000000000	0.00000000000000	-0.10039200000000	0.00000000000000	-8.95268300000000	0.00000000000000	0.00000000000000	-25.04977800000000	0.00000000000000	
5.60164800000000	0.94511300000000	175.12026100000000	-8.67506700000000	0.40373200000000	0.00000000000000	0.10722800000000	-67.26996200000001	731.54646800000000	-54.65033400000000	0.11800300000000	0.00000000000000	-0.10023400000000	0.00000000000000	-8.87284800000000	0.00000000000000	0.00000000000000	-24.89420100000000	0.00000000000000	
5.60330800000000	2.36267800000000	183.56799899999999	-8.18474000000000	0.40537400000000	0.00000000000000	0.10756100000000	-67.72997200000000	726.58546999999999	-53.84179000000000	0.11732400000000	0.00000000000000	-0.10007300000000	0.00000000000000	-8.77678300000000	0.00000000000000	0.00000000000000	-24.73473200000000	0.00000000000000	
5.60497800000000	3.81672900000000	192.20957100000001	-7.66264600000000	0.40693300000000	0.00000000000000	0.10788200000000	-68.17352700000001	721.47105899999997	-53.01288700000000	0.11665400000000	0.00000000000000	-0.09990900000000	0.00000000000000	-8.66259100000000	0.00000000000000	0.00000000000000	-24.57122900000000	0.00000000000000	
5.60664700000000	5.31021600000000	201.02811399999999	-7.10563500000000	0.40841700000000	0.00000000000000	0.10819300000000	-68.59910900000000	716.20179900000005	-52.16430200000000	0.11599300000000	0.00000000000000	-0.09974100000000	0.00000000000000	-8.52783500000000	0.00000000000000	0.00000000000000	-24.40354300000000	0.00000000000000	
5.60830800000000	6.84640400000000	210.00361500000000	-6.51023900000000	0.40982900000000	0.00000000000000	0.10849400000000	-69.00516600000000	710.77634899999998	-51.29675100000000	0.11534100000000	0.00000000000000	-0.09957000000000	0.00000000000000	-8.36981800000000	0.00000000000000	0.00000000000000	-24.23151900000000	0.00000000000000	
